<svg xmlns="http://www.w3.org/2000/svg" width="269.254" height="235.597" viewBox="0 0 269.254 235.597">
  <path id="bars" d="M9.616,103.273H259.638a9.616,9.616,0,0,0,9.616-9.616V69.616A9.616,9.616,0,0,0,259.638,60H9.616A9.616,9.616,0,0,0,0,69.616V93.657A9.616,9.616,0,0,0,9.616,103.273Zm0,96.162H259.638a9.616,9.616,0,0,0,9.616-9.616V165.778a9.616,9.616,0,0,0-9.616-9.616H9.616A9.616,9.616,0,0,0,0,165.778v24.041A9.616,9.616,0,0,0,9.616,199.435Zm0,96.162H259.638a9.616,9.616,0,0,0,9.616-9.616V261.94a9.616,9.616,0,0,0-9.616-9.616H9.616A9.616,9.616,0,0,0,0,261.94v24.041A9.616,9.616,0,0,0,9.616,295.6Z" transform="translate(0 -60)"/>
</svg>
